<?xml version='1.0' ?>
<svg viewBox="0 0 1000 773.61461" xmlns="http://www.w3.org/2000/svg" xmlns:xlink="http://www.w3.org/1999/xlink" version="1.1" width="1000" height="773.6146">
  <path fill="#453A62" d="M477.9597,226.7003 l-151.1335,-226.7003 h-113.3501 l151.1335,226.7003 l-151.1335,226.7003 h113.3501 Z" />
  <path fill="#5E5086" d="M635.3904,226.7003 l-151.1335,-226.7003 h-113.3501 l151.1335,226.7003 l-151.1335,226.7003 h113.3501 Z" />
  <path fill="#5E5086" d="M522.0403,226.7003 l151.1335,226.7003 h113.3501 l-151.1335,-226.7003 Z" />
  <path fill="#8F4E8B" d="M50.3778,698.0479 l142.3174,-213.4761 h113.3501 l-142.3174,213.4761 h268.262 l-50.3778,75.5668 h-381.6121 Z" />
  <path fill="#8F4E8B" d="M568.0101,560.1385 l-20.7809,31.1713 l-50.3778,75.5668 h318.6398 l20.7809,31.1713 h-360.2016 l-50.3778,75.5668 h574.3072 l-50.3778,-75.5668 l-20.7808,-31.1712 l-50.3778,-75.5668 h-217.8842 l20.7809,-31.1713 h176.3224 l-50.3778,-75.5668 h-188.9169 Z" />
  <defs />
</svg>
